<?xml version="1.0" encoding="UTF-8"?>
<svg id="b" data-name="Layer 2" xmlns="http://www.w3.org/2000/svg" width="147.47" height="15.26" viewBox="0 0 147.47 15.26">
  <defs>
    <style>
      .d {
        fill: none;
        stroke: #dd7f83;
        stroke-miterlimit: 10;
        stroke-width: 2px;
      }
    </style>
  </defs>
  <g id="c" data-name="Layer 1">
    <path class="d" d="M14.38,10.61c44.35-2.23,88.69-4.47,133.04-6.7C98.3,5.98,49.19,8.04,.07,10.1,40.93,7.07,81.79,4.03,122.65,1c-29.81,2.8-59.61,5.59-89.42,8.39,37.77-2.1,75.54-4.2,113.31-6.3-38.57,3.72-77.14,7.45-115.72,11.17,35.77-2.51,71.54-5.02,107.3-7.54-30.27,2.16-60.55,4.31-90.82,6.47,30.8-.89,61.6-1.79,92.4-2.68-11.11,.1-22.23,.21-33.34,.31"/>
  </g>
</svg>