<svg width="259" height="295" viewBox="0 0 259 295" fill="none" xmlns="http://www.w3.org/2000/svg">
<g style="mix-blend-mode:luminosity">
<path d="M226.432 47.6524L150.079 3.51523C141.645 -1.36003 130.855 1.54294 125.979 9.99918L2.3716 224.359C-2.50456 232.815 0.379413 243.622 8.81315 248.497L85.1663 292.635C93.6001 297.51 104.39 294.607 109.266 286.151L232.873 71.7913C237.749 63.335 234.865 52.5277 226.432 47.6524Z" fill="#666666"/>
<path fill-rule="evenodd" clip-rule="evenodd" d="M86.6085 7.65569C97.8324 14.1439 87.4417 59.1753 87.4417 59.1753L95.077 63.589L121.564 17.6549L91.023 0L86.6085 7.65569ZM46.8776 76.5569C58.1015 83.0451 47.7108 128.077 47.7108 128.077L55.3461 132.49L81.8334 86.5561L51.2921 68.9013L46.8776 76.5569ZM7.14668 145.458C18.3706 151.946 7.97992 196.978 7.97992 196.978L15.6152 201.392L42.1025 155.457L11.5612 137.803L7.14668 145.458ZM228.459 79.4469L201.971 125.381L209.607 129.795C209.607 129.795 243.362 98.2693 254.585 104.758L259 97.1018L228.459 79.4469ZM162.241 194.282L169.876 198.696C169.876 198.696 203.631 167.171 214.855 173.659L219.269 166.003L188.728 148.348L162.241 194.282ZM122.51 263.184L130.145 267.597C130.145 267.597 163.9 236.072 175.124 242.56L179.538 234.904L148.997 217.249L122.51 263.184Z" fill="#333333"/>
<path d="M64.6921 239.867C77.3427 247.18 93.5274 242.825 100.842 230.141C108.156 217.456 103.83 201.245 91.1793 193.933C78.5287 186.62 62.344 190.974 55.0297 203.658C47.7155 216.343 52.0415 232.554 64.6921 239.867Z" fill="#88C057"/>
<path d="M104.423 170.965C117.074 178.278 133.258 173.924 140.573 161.24C147.887 148.555 143.561 132.344 130.91 125.031C118.26 117.718 102.075 122.073 94.7606 134.757C87.4464 147.442 91.7723 163.653 104.423 170.965Z" fill="#FFF7E6"/>
<path d="M144.154 102.064C156.804 109.377 172.989 105.023 180.303 92.3383C187.618 79.6539 183.292 63.4429 170.641 56.1301C157.99 48.8172 141.806 53.1716 134.492 65.856C127.177 78.5403 131.503 94.7513 144.154 102.064Z" fill="#ED7161"/>
</g>
</svg>
