<svg width="315" height="327" viewBox="0 0 315 327" fill="none" xmlns="http://www.w3.org/2000/svg">
<g style="mix-blend-mode:luminosity">
<path d="M80.0136 72.1304L3.09599 205.356C-1.35714 213.069 1.31006 223.023 9.0231 227.476L177.308 324.635C185.021 329.088 194.975 326.421 199.428 318.708L276.346 185.483L80.0136 72.1304Z" fill="#D9D9D9"/>
<path d="M306.853 100.256L138.569 3.0966C130.856 -1.35653 120.901 1.31067 116.448 9.02371L80.0136 72.1304L276.346 185.483L312.78 122.376C317.233 114.663 314.566 104.709 306.853 100.256Z" fill="#F2F2F2"/>
<path d="M140.447 32.2288L280.685 113.195C284.541 115.421 285.875 120.398 283.648 124.255L267.455 152.302C265.228 156.159 260.251 157.492 256.395 155.266L116.158 74.2999C112.301 72.0733 110.968 67.0963 113.194 63.2398L129.387 35.1923C131.614 31.3358 136.591 30.0022 140.447 32.2288Z" fill="#999999"/>
<path fill-rule="evenodd" clip-rule="evenodd" d="M113.988 110.444L99.9645 102.347C96.108 100.121 91.1309 101.454 88.9043 105.311L80.8077 119.335C78.5812 123.191 79.9148 128.168 83.7713 130.395L97.795 138.491C101.652 140.718 106.629 139.384 108.855 135.528L116.952 121.504C119.178 117.648 117.845 112.67 113.988 110.444ZM89.6984 152.515L75.6747 144.418C71.8182 142.192 66.8411 143.526 64.6145 147.382L56.5179 161.406C54.2914 165.262 55.625 170.239 59.4815 172.466L73.5052 180.563C77.3617 182.789 82.3388 181.455 84.5654 177.599L92.662 163.575C94.8885 159.719 93.5549 154.742 89.6984 152.515ZM65.4086 194.586L51.3849 186.49C47.5284 184.263 42.5513 185.597 40.3247 189.453L32.2282 203.477C30.0016 207.333 31.3352 212.31 35.1917 214.537L49.2154 222.634C53.072 224.86 58.049 223.527 60.2756 219.67L68.3722 205.646C70.5987 201.79 69.2651 196.813 65.4086 194.586ZM156.059 134.734L142.036 126.637C138.179 124.411 133.202 125.744 130.975 129.601L122.879 143.624C120.652 147.481 121.986 152.458 125.842 154.685L139.866 162.781C143.723 165.008 148.7 163.674 150.926 159.818L159.023 145.794C161.249 141.937 159.916 136.96 156.059 134.734ZM131.77 176.805L117.746 168.708C113.889 166.482 108.912 167.815 106.686 171.672L98.5891 185.696C96.3625 189.552 97.6961 194.529 101.553 196.756L115.576 204.852C119.433 207.079 124.41 205.745 126.637 201.889L134.733 187.865C136.96 184.009 135.626 179.031 131.77 176.805ZM107.48 218.876L93.4561 210.779C89.5995 208.553 84.6225 209.886 82.3959 213.743L74.2993 227.767C72.0727 231.623 73.4063 236.6 77.2629 238.827L91.2866 246.923C95.1431 249.15 100.12 247.816 102.347 243.96L110.443 229.936C112.67 226.08 111.336 221.103 107.48 218.876ZM198.13 159.024L184.107 150.927C180.25 148.7 175.273 150.034 173.047 153.89L164.95 167.914C162.723 171.771 164.057 176.748 167.914 178.974L181.937 187.071C185.794 189.297 190.771 187.964 192.997 184.107L201.094 170.084C203.321 166.227 201.987 161.25 198.13 159.024ZM173.841 201.095L159.817 192.998C155.96 190.772 150.983 192.105 148.757 195.962L140.66 209.985C138.434 213.842 139.767 218.819 143.624 221.045L157.648 229.142C161.504 231.369 166.481 230.035 168.708 226.179L176.804 212.155C179.031 208.298 177.697 203.321 173.841 201.095ZM149.551 243.166L135.527 235.069C131.671 232.843 126.694 234.176 124.467 238.033L116.37 252.056C114.144 255.913 115.477 260.89 119.334 263.117L133.358 271.213C137.214 273.44 142.191 272.106 144.418 268.25L152.514 254.226C154.741 250.369 153.407 245.392 149.551 243.166ZM240.202 183.313L226.178 175.217C222.321 172.99 217.344 174.324 215.118 178.18L207.021 192.204C204.795 196.06 206.128 201.038 209.985 203.264L224.008 211.361C227.865 213.587 232.842 212.254 235.069 208.397L243.165 194.373C245.392 190.517 244.058 185.54 240.202 183.313Z" fill="#999999"/>
<path d="M215.912 225.384L201.888 217.288C198.016 215.052 193.064 216.379 190.828 220.251L158.442 276.346C156.206 280.219 157.533 285.171 161.405 287.406L175.429 295.503C179.301 297.739 184.253 296.412 186.489 292.539L218.875 236.445C221.111 232.572 219.784 227.62 215.912 225.384Z" fill="#FF8833"/>
</g>
</svg>
