<svg width="251" height="220" viewBox="0 0 251 220" fill="none" xmlns="http://www.w3.org/2000/svg">
<path fill-rule="evenodd" clip-rule="evenodd" d="M1.03097 129.671C3.14792 125.901 7.77385 124.644 11.3805 126.765L99.0381 177.663L196.888 4.46729C196.888 4.46729 196.888 4.1531 197.045 3.99601C198.143 2.03234 199.868 0.854133 201.828 0.304305C203.788 -0.245524 205.983 -0.0884299 207.865 1.08977C208.257 1.32541 208.492 1.6396 208.806 1.95379L247.225 24.6538C250.832 26.8532 252.086 31.6445 249.969 35.4148C247.852 39.185 243.226 40.4418 239.619 38.321L206.846 18.9199L181.834 63.1418C197.045 77.9872 200.809 101.159 189.361 120.01L154.236 177.82L160.979 181.826C164.585 184.026 165.84 188.817 163.723 192.587C161.606 196.357 156.98 197.614 153.373 195.493L118.718 174.993L108.996 192.194C108.996 192.194 108.996 192.509 108.839 192.666C107.741 194.629 106.016 195.808 104.056 196.357C102.096 196.907 99.9005 196.75 98.0188 195.572C97.6268 195.336 97.47 195.022 97.1564 194.786L3.77516 140.589C0.168493 138.39 -1.08599 133.598 1.03097 129.828V129.671ZM140.123 169.416L174.935 112.077C181.599 101.08 180.502 87.9627 173.367 78.2228L126.402 161.325L140.044 169.416H140.123Z" fill="#FFB6B6"/>
<path d="M156.901 220C139.581 220 125.539 205.933 125.539 188.581C125.539 171.229 139.581 157.162 156.901 157.162C174.222 157.162 188.264 171.229 188.264 188.581C188.264 205.933 174.222 220 156.901 220Z" fill="#DB7C7C"/>
<path d="M156.901 204.291C148.241 204.291 141.22 197.257 141.22 188.581C141.22 179.905 148.241 172.872 156.901 172.872C165.562 172.872 172.583 179.905 172.583 188.581C172.583 197.257 165.562 204.291 156.901 204.291Z" fill="#FFECEC"/>
<path d="M68.0965 45.3447L135.998 84.6182C139.748 86.7872 141.033 91.5911 138.868 95.3479L99.6648 163.372C97.4997 167.128 92.7045 168.416 88.9544 166.247L21.0531 126.973C17.303 124.804 16.0181 120 18.1832 116.243L57.3861 48.2198C59.5512 44.4629 64.3464 43.1757 68.0965 45.3447Z" fill="#D67777"/>
<path d="M167.331 30.2111L126.59 6.64701C122.856 4.48697 118.036 5.78073 115.88 9.52203L92.3581 50.3362C90.202 54.0775 91.4934 58.9059 95.228 61.0659L135.969 84.63C139.703 86.79 144.523 85.4963 146.679 81.755L170.201 40.9408C172.357 37.1995 171.066 32.3711 167.331 30.2111Z" fill="#FFA5A5"/>
</svg>
