<svg width="208" height="163" viewBox="0 0 208 163" fill="none" xmlns="http://www.w3.org/2000/svg">
<path d="M154.958 94.3405C154.067 94.3405 153.264 94.0725 152.55 93.5365C152.015 92.8218 151.748 92.0177 151.748 91.1243L152.015 67.8072C152.015 67.2712 151.837 66.9139 151.48 66.7352C151.124 66.5565 150.767 66.6458 150.41 67.0032L129.541 79.3318C128.828 79.6891 128.293 79.8678 127.936 79.8678C126.687 79.8678 125.706 79.2424 124.993 77.9917L117.502 64.3231C117.145 63.6084 116.966 62.983 116.966 62.447C116.966 61.3749 117.502 60.4816 118.572 59.7669L140.511 47.7063C141.403 47.1702 141.403 46.6342 140.511 46.0982L118.839 34.5736C117.948 34.2163 117.323 33.5909 116.966 32.6976C116.788 31.8042 116.966 30.9108 117.502 30.0174L124.993 16.0808C125.528 15.1874 126.152 14.6514 126.866 14.4727C127.758 14.1153 128.649 14.2047 129.541 14.7407L150.41 27.0693C150.767 27.4266 151.124 27.516 151.48 27.3373C151.837 27.1586 152.015 26.8013 152.015 26.2653L151.748 3.21616C151.748 2.32278 152.015 1.60808 152.55 1.07205C153.264 0.357351 154.067 0 154.958 0H169.941C170.833 0 171.546 0.357351 172.082 1.07205C172.795 1.60808 173.152 2.32278 173.152 3.21616V26.2653C173.152 26.8013 173.33 27.1586 173.687 27.3373C174.044 27.516 174.4 27.4266 174.757 27.0693L195.358 14.7407C196.072 14.3834 196.607 14.2047 196.964 14.2047C198.212 14.2047 199.193 14.83 199.907 16.0808L207.398 30.0174C207.755 30.7321 207.933 31.3575 207.933 31.8935C207.933 33.1443 207.309 34.0376 206.06 34.5736L184.389 46.0982C183.497 46.6342 183.497 47.1702 184.389 47.7063L206.328 59.7669C207.22 60.3029 207.755 61.0176 207.933 61.9109C208.111 62.8043 207.933 63.6084 207.398 64.3231L199.907 78.2597C199.372 79.1531 198.658 79.7785 197.766 80.1358C197.053 80.3145 196.25 80.1358 195.358 79.5998L174.757 67.0032C174.4 66.6458 174.044 66.5565 173.687 66.7352C173.33 66.9139 173.152 67.2712 173.152 67.8072V91.1243C173.152 92.0177 172.795 92.8218 172.082 93.5365C171.546 94.0725 170.833 94.3405 169.941 94.3405H154.958Z" fill="#EDEDED"/>
<path d="M0.185363 92.0575C-0.02459 91.6635 -0.0561891 91.2246 0.0905653 90.7411C0.200631 90.3785 0.452361 90.092 0.845757 89.8817L97.1489 38.3962C97.5424 38.1859 97.9201 38.1359 98.2821 38.2461C98.7647 38.3931 99.1111 38.6637 99.321 39.0578L106.69 52.8899C106.9 53.2839 106.911 53.6833 106.722 54.088C106.654 54.5295 106.423 54.8554 106.03 55.0657L9.72675 106.551C9.33335 106.762 8.93466 106.772 8.53066 106.583C8.08997 106.515 7.76465 106.284 7.5547 105.89L0.185363 92.0575Z" fill="#FCB07D"/>
<path d="M0.185363 127.793C-0.02459 127.398 -0.0561891 126.96 0.0905653 126.476C0.200631 126.114 0.452361 125.827 0.845757 125.617L97.1489 74.1312C97.5424 73.9209 97.9201 73.8709 98.2821 73.9812C98.7647 74.1282 99.1111 74.3987 99.321 74.7928L106.69 88.6249C106.9 89.019 106.911 89.4184 106.722 89.8231C106.654 90.2645 106.423 90.5904 106.03 90.8007L9.72675 142.286C9.33335 142.497 8.93466 142.507 8.53066 142.318C8.08997 142.25 7.76465 142.019 7.5547 141.625L0.185363 127.793Z" fill="#ABA3DD"/>
<path d="M34.0749 148.34C33.8649 147.946 33.8333 147.507 33.9801 147.024C34.0902 146.661 34.3419 146.375 34.7353 146.164L131.038 94.6789C131.432 94.4686 131.81 94.4185 132.172 94.5288C132.654 94.6758 133.001 94.9464 133.211 95.3404L140.58 109.173C140.79 109.567 140.8 109.966 140.612 110.371C140.544 110.812 140.313 111.138 139.919 111.348L43.6163 162.834C43.2229 163.044 42.8242 163.055 42.4202 162.866C41.9795 162.798 41.6542 162.566 41.4442 162.172L34.0749 148.34Z" fill="#EF9090"/>
</svg>
