<?xml version="1.0" encoding="utf-8"?>
<!-- Generator: Adobe Illustrator 27.2.0, SVG Export Plug-In . SVG Version: 6.00 Build 0)  -->
<svg version="1.1" id="Layer_1" xmlns="http://www.w3.org/2000/svg" xmlns:xlink="http://www.w3.org/1999/xlink" x="0px" y="0px"
	 viewBox="0 0 202.7 193.6" width="203" height="194"  style="enable-background:new 0 0 202.7 193.6;" xml:space="preserve">
<style type="text/css">
	.st0{clip-path:url(#SVGID_00000000223780719249139930000001532940319311357086_);}
	.st1{fill:#6DB1FA;stroke:#3B3C40;stroke-width:12;}
	.st2{fill:#FDCB6E;stroke:#3B3C40;stroke-width:12;}
	.st3{fill:#ABA3DD;stroke:#3B3C40;stroke-width:12;}
	.st4{fill:#F0F0F8;stroke:#3B3C40;stroke-width:12;}
</style>
<g>
	<defs>
		
			<rect id="SVGID_1_" x="-34.8" y="-37.5" transform="matrix(0.866 -0.5 0.5 0.866 -34.8348 63.6416)" width="272.3" height="268.6"/>
	</defs>
	<clipPath id="SVGID_00000077290253504320014620000003797183382017775277_">
		<use xlink:href="#SVGID_1_"  style="overflow:visible;"/>
	</clipPath>
	<g style="clip-path:url(#SVGID_00000077290253504320014620000003797183382017775277_);">
		<path class="st1" d="M81.7,176.8L81.7,176.8l0.5-58.2v0v0c0-3.3-1.1-6.6-2.6-9.2c-1.5-2.6-3.8-5.2-6.7-6.9l0,0l0,0L22.2,73.8
			c-2.9-1.7-6.9-2.5-10.5-0.4c-3.6,2.1-4.9,5.9-4.9,9.3c0,0,0,0,0,0l-0.5,58.2l0,0l0,0c0,3.3,1.1,6.6,2.6,9.2
			c1.5,2.6,3.8,5.2,6.7,6.9l0,0l0,0l50.7,28.7l0,0c2.9,1.6,6.9,2.4,10.4,0.4C80.3,184,81.6,180.2,81.7,176.8z"/>
		<path class="st2" d="M119.8,154.8L119.8,154.8l0.5-58.2v0v0c0-3.3-1.1-6.6-2.6-9.2c-1.5-2.6-3.8-5.2-6.7-6.9l0,0l0,0L60.3,51.8
			c-2.9-1.7-6.9-2.5-10.5-0.4c-3.6,2.1-4.9,5.9-4.9,9.3c0,0,0,0,0,0l-0.5,58.2v0v0c0,3.3,1.1,6.6,2.6,9.2c1.5,2.6,3.8,5.2,6.7,6.9
			l0,0l0,0l50.7,28.7l0,0c2.9,1.6,6.9,2.4,10.4,0.4C118.5,162,119.8,158.2,119.8,154.8z"/>
		<path class="st3" d="M157.6,133L157.6,133l0.5-58.2v0v0c0-3.3-1.1-6.6-2.6-9.2c-1.5-2.6-3.8-5.2-6.7-6.9l0,0l0,0L98.1,30
			c-2.9-1.7-6.9-2.5-10.5-0.4c-3.6,2.1-4.9,5.9-4.9,9.3c0,0,0,0,0,0L82.3,97v0v0c0,3.3,1.1,6.6,2.6,9.2c1.5,2.6,3.8,5.2,6.7,6.9l0,0
			l0,0l50.7,28.7l0,0c2.9,1.6,6.9,2.4,10.4,0.4C156.3,140.2,157.6,136.3,157.6,133z"/>
		<path class="st4" d="M195.7,111L195.7,111l0.5-58.2l0,0v0c0-3.3-1.1-6.6-2.6-9.2c-1.5-2.6-3.8-5.2-6.7-6.9l0,0l0,0L136.3,8
			c-2.9-1.7-6.9-2.5-10.5-0.4c-3.6,2.1-4.9,5.9-4.9,9.3c0,0,0,0,0,0L120.4,75v0v0c0,3.3,1.1,6.6,2.6,9.2c1.5,2.6,3.8,5.2,6.7,6.9
			l0,0l0,0l50.7,28.7l0,0c2.9,1.6,6.9,2.4,10.4,0.4S195.7,114.3,195.7,111z"/>
	</g>
</g>
</svg>
