<?xml version="1.0" encoding="utf-8"?>
<!-- Generator: Adobe Illustrator 27.2.0, SVG Export Plug-In . SVG Version: 6.00 Build 0)  -->
<svg version="1.1" id="Layer_1" xmlns="http://www.w3.org/2000/svg" xmlns:xlink="http://www.w3.org/1999/xlink" x="0px" y="0px"
	 viewBox="0 0 150.3 143.7" width="150" height="144" style="enable-background:new 0 0 150.3 143.7;" xml:space="preserve">
<style type="text/css">
	.st0{fill-rule:evenodd;clip-rule:evenodd;fill:#F0F0F8;}
	.st1{fill-rule:evenodd;clip-rule:evenodd;fill:#FDD684;}
	.st2{fill-rule:evenodd;clip-rule:evenodd;fill:#EF9090;}
	.st3{fill:#6DB1FA;}
</style>
<path class="st0" d="M27.7,123.6c-4.9-3.9-12-3.1-15.9,1.8c-3.9,4.9-3,12,1.9,15.9c4.9,3.9,12,3.1,15.9-1.8
	C33.5,134.6,32.7,127.5,27.7,123.6z M76.9,61.3c-19.1-15.1-43-22-67.2-19.3c-6,0.7-10.3,6.1-9.6,12.2c0.4,3,1.9,5.6,4.1,7.4
	c2.2,1.8,5.1,2.7,8.1,2.3c18.3-2.1,36.9,2.6,51.4,14c14.5,11.5,23.3,28.5,25.5,46.8c0.7,6,6.2,10.4,12.2,9.7
	c6-0.7,10.3-6.1,9.6-12.2C108.1,98.1,96,76.5,76.9,61.3z M52.4,92.5C41.5,83.9,27.9,80.2,14,82c-5.7,0.8-9.9,6.1-9.4,11.8
	c0.3,2.9,1.8,5.4,3.8,7c2,1.6,4.8,2.5,7.7,2.1c8.3-1.1,16.7,0.8,23.2,6c6.5,5.1,10.3,12.9,11.2,21.2c0.6,5.8,5.7,9.9,11.5,9.1
	c5.7-0.8,9.9-6.1,9.4-11.8C69.9,113.4,63.2,100.9,52.4,92.5L52.4,92.5z M150.2,109.8C147,76.2,130.9,46.4,105,25.9
	C79.1,5.4,46.4-3.4,13,1.2C7.1,2,2.8,7.5,3.4,13.4c0.3,3,1.7,5.5,3.9,7.2c2.1,1.7,4.9,2.5,7.9,2.1c27.7-3.8,54,4.4,75.6,21.4
	c21.5,17,35.5,40.7,38.2,68.6c0.6,5.9,5.8,10.1,11.7,9.3S150.8,115.7,150.2,109.8z"/>
<path class="st1" d="M27.7,123.6c-4.9-3.9-12-3.1-15.9,1.8c-3.9,4.9-3,12,1.9,15.9c4.9,3.9,12,3.1,15.9-1.8
	C33.5,134.6,32.6,127.5,27.7,123.6z M111,122.3c-2.9-24.2-15-45.8-34.2-61c-19.1-15.1-43-22-67.2-19.3c-6,0.7-10.3,6.1-9.6,12.2
	c0.4,3,1.9,5.6,4.1,7.4c2.2,1.8,5.1,2.7,8.1,2.3c18.3-2.1,36.9,2.6,51.4,14c14.5,11.5,23.3,28.5,25.5,46.8c0.7,6,6.2,10.4,12.2,9.7
	C107.5,133.8,111.7,128.3,111,122.3z M52.4,92.5C41.6,83.9,28,80.2,14,82c-5.7,0.8-9.9,6.1-9.4,11.8c0.3,2.9,1.8,5.4,3.8,7
	c2,1.6,4.8,2.5,7.7,2.1c8.3-1.1,16.7,0.8,23.2,6c6.5,5.1,10.3,12.9,11.2,21.2c0.6,5.8,5.7,9.9,11.5,9.1c5.7-0.8,9.9-6.1,9.4-11.8
	C70,113.4,63.2,101,52.4,92.5L52.4,92.5z"/>
<path class="st2" d="M27.7,123.6c-4.9-3.9-12-3.1-15.9,1.8c-3.9,4.9-3,12,1.9,15.9c4.9,3.9,12,3.1,15.9-1.8
	C33.5,134.6,32.6,127.5,27.7,123.6z M71.3,127.3c-1.4-13.9-8.1-26.4-19-34.9C41.5,83.8,27.9,80.1,13.9,82C8.2,82.8,4,88,4.6,93.8
	c0.3,2.9,1.8,5.4,3.8,7c2,1.6,4.8,2.5,7.7,2.1c8.3-1.1,16.7,0.8,23.2,6c6.5,5.1,10.3,12.9,11.2,21.2c0.6,5.8,5.7,9.9,11.5,9.1
	C67.6,138.3,71.8,133,71.3,127.3L71.3,127.3z"/>
<path class="st3" d="M27.8,123.5c-4.9-3.9-12-3.1-15.9,1.8c-3.9,4.9-3,12,1.9,15.9c4.9,3.9,12,3.1,15.9-1.8
	C33.6,134.5,32.7,127.4,27.8,123.5z"/>
</svg>
