<?xml version="1.0" encoding="utf-8"?>
<!-- Generator: Adobe Illustrator 27.2.0, SVG Export Plug-In . SVG Version: 6.00 Build 0)  -->
<svg version="1.1" id="Layer_1" xmlns="http://www.w3.org/2000/svg" xmlns:xlink="http://www.w3.org/1999/xlink" x="0px" y="0px"
	 viewBox="0 0 37.7 58.9" width="40" height="59" style="enable-background:new 0 0 37.7 58.9;" xml:space="preserve">
<style type="text/css">
	.st0{clip-path:url(#SVGID_00000142177467829245451960000004591419603768845247_);}
	.st1{fill:#FDC29B;}
</style>
<g>
	<defs>
		
			<rect id="SVGID_1_" x="-11.3" y="6.8" transform="matrix(0.5878 -0.809 0.809 0.5878 -14.0379 27.669)" width="62.9" height="41.6"/>
	</defs>
	<clipPath id="SVGID_00000133492497302789632330000001877670370047047095_">
		<use xlink:href="#SVGID_1_"  style="overflow:visible;"/>
	</clipPath>
	<g style="clip-path:url(#SVGID_00000133492497302789632330000001877670370047047095_);">
		<path class="st1" d="M19,57.4C9,52.1,0.9,42.3,0.3,30.7C0,25,1.2,19.5,4,14.6C6.8,9.8,11.2,6.3,16.1,4c5.8-2.6,12.2-3.5,18.5-3.9
			C36,0,37.3,0.8,37.5,2.2c0.2,1.2-0.7,2.8-2.1,2.9c-9.3,0.6-20,2.3-25.9,10.3C3.9,23,4,33.6,8.8,41.6c2.8,4.7,7.1,8.6,11.9,11.1
			c1.2,0.6,2,1.9,1.5,3.2C21.8,57,20.2,58,19,57.4z"/>
		<path class="st1" d="M10,53.4c4.1,0.1,8.2,0.3,12.2,0.4l-2.5,3.5c-1.8-3-2.5-6.6-2.2-10.1c0.1-1.3,1.4-2.4,2.7-2.2
			c1.4,0.2,2.4,1.3,2.2,2.7c0,0.4,0,0.7-0.1,1.1c0,0.3,0,0.4,0,0.1c0,0.2,0,0.4,0,0.6c0.1,0.7,0.2,1.5,0.3,2.2
			c0,0.2,0.1,0.3,0.1,0.5c0.1,0.3-0.1-0.4,0,0.1c0.1,0.4,0.3,0.8,0.4,1.1c0.3,0.7,0.6,1.3,1,2c0.4,0.7,0.2,1.8-0.3,2.5
			c-0.5,0.8-1.4,1-2.3,1c-4.1-0.1-8.2-0.3-12.2-0.4c-1.3,0-2.4-1.5-2.2-2.7C7.5,54.2,8.6,53.3,10,53.4z"/>
	</g>
</g>
</svg>
