<svg width="140" height="25" viewBox="0 0 140 25" fill="none" xmlns="http://www.w3.org/2000/svg">
<g filter="url(#filter0_d_223_17)">
<path d="M5.09871 5.33182C12.8583 4.84142 53.4081 4.35103 61.1678 3.86063L134.883 3.43741L134.58 0.0628793C128.696 1.60856 100.466 4.20424 94.9527 7.66011C94.4286 7.98861 94.0452 8.62982 94.1365 9.54504C94.2198 10.3802 94.6772 11.0337 95.2556 11.0346C96.8415 11.0371 116.52 10.6092 117.951 11.6385V8.67173C117.163 9.23608 116.284 9.70423 115.551 10.4206C114.705 11.248 114.384 12.8797 114.761 14.2763C115.217 15.9636 116.271 16.2576 117.36 16.3596C118.825 16.4969 118.819 13.0605 117.36 12.9237C117.165 12.9055 116.965 12.8511 116.771 12.8485C116.709 12.8477 116.854 12.8777 116.85 12.9412C116.832 13.1877 116.809 12.7529 116.868 13.0029C116.942 13.3159 116.887 12.8036 116.871 13.1117C116.859 13.3401 116.627 13.3773 116.887 13.2238C117.005 13.1541 117.118 13.0579 117.233 12.9761C117.856 12.5302 118.479 12.0844 119.101 11.6385C119.847 11.1047 119.845 9.20663 119.101 8.67174C117.302 7.37744 97.2573 7.60191 95.2556 7.59876L95.5585 10.9733C101.072 7.51742 129.301 4.92174 135.186 3.37606C136.453 3.04319 136.156 -0.0789269 134.883 0.00152798C127.123 0.491912 52.3483 0.982114 44.5886 1.47251L5.09871 1.89592C3.63763 1.98826 3.62991 5.42464 5.09871 5.33182Z" fill="#FDC199"/>
</g>
<defs>
<filter id="filter0_d_223_17" x="0" y="0" width="140" height="25" filterUnits="userSpaceOnUse" color-interpolation-filters="sRGB">
<feFlood flood-opacity="0" result="BackgroundImageFix"/>
<feColorMatrix in="SourceAlpha" type="matrix" values="0 0 0 0 0 0 0 0 0 0 0 0 0 0 0 0 0 0 127 0" result="hardAlpha"/>
<feOffset dy="4"/>
<feGaussianBlur stdDeviation="2"/>
<feComposite in2="hardAlpha" operator="out"/>
<feColorMatrix type="matrix" values="0 0 0 0 0 0 0 0 0 0 0 0 0 0 0 0 0 0 0.25 0"/>
<feBlend mode="normal" in2="BackgroundImageFix" result="effect1_dropShadow_223_17"/>
<feBlend mode="normal" in="SourceGraphic" in2="effect1_dropShadow_223_17" result="shape"/>
</filter>
</defs>
</svg>
