<svg width="99" height="88" viewBox="0 0 99 88" fill="none" xmlns="http://www.w3.org/2000/svg">
<path d="M85.8283 1.12282C85.0782 0.751938 84.1815 1.05006 83.8255 1.78868L78.025 13.8253C77.6691 14.5639 77.9887 15.4633 78.7389 15.8342C79.489 16.2051 80.3857 15.907 80.7417 15.1683L85.8977 4.46915L96.7642 9.8414C97.5144 10.2123 98.4111 9.91416 98.767 9.17553C99.123 8.43691 98.8034 7.53748 98.0532 7.1666L85.8283 1.12282ZM5.47357 86.4204C2.75024 79.5357 2.50233 74.6157 3.77381 71.0175C5.03514 67.4481 7.90233 64.8714 12.1209 62.9186C16.3587 60.9567 21.8062 59.6985 27.9532 58.7006C34.1171 57.6999 40.7646 56.9907 47.5248 56.0524C54.2301 55.1218 60.9572 53.9754 67.0301 52.1143C73.0996 50.2542 78.6106 47.6526 82.8178 43.7522C87.056 39.8231 89.9069 34.6336 90.7218 27.7521C91.532 20.9114 90.3235 12.4685 86.6001 1.98938L83.7676 2.93105C87.3986 13.1498 88.4734 21.1057 87.7355 27.3364C87.0024 33.5264 84.4742 38.0811 80.7423 41.5409C76.9794 45.0295 71.9293 47.4616 66.0871 49.252C60.2481 51.0415 53.7126 52.1624 47.0446 53.0878C40.4315 54.0057 33.5953 54.7413 27.4049 55.7463C21.1975 56.754 15.4204 58.0622 10.8032 60.1996C6.16676 62.3459 2.54872 65.4013 0.934728 69.9687C-0.669114 74.5074 -0.18242 80.2291 2.67894 87.4628L5.47357 86.4204Z" fill="#FDC199"/>
</svg>
