<svg width="30" height="73" viewBox="0 0 30 73" fill="none" xmlns="http://www.w3.org/2000/svg">
<path d="M17.6697 72.214C16.9269 72.5807 16.0274 72.2757 15.6607 71.5328C15.2941 70.79 15.599 69.8905 16.3419 69.5239L17.6697 72.214ZM26.6285 8.78529C27.2997 9.27084 27.4502 10.2086 26.9647 10.8798L19.0522 21.8179C18.5667 22.4892 17.6289 22.6397 16.9577 22.1541C16.2865 21.6686 16.136 20.7308 16.6215 20.0596L23.6548 10.3368L13.932 3.30353C13.2608 2.81798 13.1103 1.88024 13.5958 1.20902C14.0814 0.537802 15.0191 0.387287 15.6903 0.872832L26.6285 8.78529ZM16.3419 69.5239C21.6453 66.9062 24.4563 64.2998 25.7163 61.8589C26.934 59.4999 26.8161 57.0691 25.6994 54.4425C24.5597 51.7616 22.4133 48.9755 19.73 46.1059C17.0529 43.2431 13.9609 40.4187 10.983 37.6006C8.04071 34.8162 5.19765 32.0267 3.17353 29.3321C1.18304 26.6822 -0.258008 23.8127 0.144212 20.9217C0.56108 17.9255 2.85131 15.5055 6.85215 13.5427C10.8653 11.5739 16.9108 9.9001 25.5116 8.5196L25.987 11.4817C17.4839 12.8465 11.786 14.4637 8.17349 16.236C4.54871 18.0143 3.33118 19.7856 3.11559 21.3351C2.88535 22.99 3.68713 25.0208 5.57219 27.5303C7.42363 29.9951 10.0888 32.624 13.045 35.4216C15.9655 38.1854 19.1621 41.1063 21.9212 44.0569C24.6739 47.0007 27.1113 50.0958 28.4603 53.2687C29.8323 56.4958 30.1082 59.8911 28.3821 63.235C26.6982 66.4971 23.2279 69.4706 17.6697 72.214L16.3419 69.5239Z" fill="#FDC199"/>
</svg>
