<svg width="100" height="92" viewBox="0 0 100 92" fill="none" xmlns="http://www.w3.org/2000/svg">
<path d="M24.3986 3.57466C25.2182 3.45398 25.7848 2.69174 25.6641 1.87215C25.5434 1.05256 24.7812 0.485983 23.9616 0.606663L24.3986 3.57466ZM50.3926 42.1051L50.8789 40.6861L50.3926 42.1051ZM75.4012 81.2247C74.907 81.8896 75.0453 82.8292 75.7102 83.3234L86.5449 91.3769C87.2098 91.8711 88.1494 91.7328 88.6436 91.0679C89.1378 90.403 88.9994 89.4634 88.3346 88.9692L78.7037 81.8105L85.8624 72.1797C86.3566 71.5148 86.2183 70.5752 85.5534 70.081C84.8885 69.5868 83.9489 69.7251 83.4547 70.39L75.4012 81.2247ZM24.1801 2.09066C23.9616 0.606663 23.9608 0.606771 23.9599 0.606915C23.9592 0.607011 23.958 0.607191 23.9567 0.607383C23.9541 0.607766 23.9506 0.608295 23.9461 0.608968C23.9371 0.610313 23.9244 0.612238 23.908 0.614749C23.8751 0.61977 23.8275 0.627133 23.7661 0.636886C23.6432 0.656388 23.4646 0.685455 23.2372 0.724465C22.7823 0.802461 22.1309 0.920325 21.3362 1.08109C19.7489 1.40218 17.5786 1.8966 15.2544 2.5899C12.9358 3.28154 10.4289 4.18133 8.18322 5.32247C5.95988 6.45225 3.86693 7.88083 2.50741 9.68779C1.09543 11.5645 0.487859 13.8479 1.31966 16.4196C2.11523 18.8794 4.16907 21.4159 7.5966 24.0889C14.461 29.4422 27.4963 35.844 49.9063 43.5241L50.8789 40.6861C28.5151 33.0219 15.8869 26.7497 9.44148 21.7232C6.21405 19.2063 4.70131 17.1265 4.17407 15.4964C3.68308 13.9784 3.99648 12.6985 4.90467 11.4914C5.8653 10.2146 7.49168 9.03897 9.54226 7.99699C11.5705 6.96637 13.8921 6.1269 16.112 5.46473C18.3262 4.80424 20.4044 4.33033 21.931 4.02154C22.6931 3.86737 23.315 3.7549 23.7442 3.68131C23.9587 3.64452 24.1249 3.61748 24.2362 3.59982C24.2919 3.59099 24.3338 3.58451 24.3611 3.58033C24.3748 3.57824 24.3848 3.57672 24.3911 3.57578C24.3942 3.57531 24.3964 3.57498 24.3977 3.57479C24.3983 3.5747 24.3985 3.57467 24.3989 3.57462C24.3989 3.57462 24.3986 3.57466 24.1801 2.09066ZM49.9063 43.5241C72.27 51.1884 84.8982 57.4605 91.3436 62.487C94.5711 65.0039 96.0838 67.0837 96.611 68.7138C97.102 70.2319 96.7886 71.5117 95.8805 72.7188C94.9198 73.9956 93.2934 75.1713 91.2429 76.2132C89.2147 77.2438 86.893 78.0833 84.6732 78.7455C82.4589 79.406 80.3807 79.8799 78.8542 80.1887C78.092 80.3429 77.4701 80.4553 77.0409 80.5289C76.8264 80.5657 76.6602 80.5927 76.5489 80.6104C76.4933 80.6192 76.4514 80.6257 76.424 80.6299C76.4103 80.632 76.4003 80.6335 76.394 80.6344C76.3909 80.6349 76.3887 80.6352 76.3874 80.6354C76.3868 80.6355 76.3866 80.6356 76.3862 80.6356C76.3863 80.6356 76.3865 80.6356 76.605 82.1196C76.8235 83.6036 76.8243 83.6034 76.8252 83.6033C76.8259 83.6032 76.8271 83.603 76.8284 83.6028C76.831 83.6025 76.8345 83.6019 76.839 83.6013C76.848 83.5999 76.8607 83.598 76.8772 83.5955C76.91 83.5905 76.9576 83.5831 77.0191 83.5733C77.142 83.5538 77.3205 83.5248 77.548 83.4858C78.0028 83.4078 78.6542 83.2899 79.449 83.1291C81.0363 82.808 83.2065 82.3136 85.5307 81.6203C87.8493 80.9287 90.3562 80.0289 92.6019 78.8878C94.8252 77.758 96.9182 76.3294 98.2777 74.5224C99.6897 72.6458 100.297 70.3623 99.4655 67.7906C98.6699 65.3309 96.6161 62.7943 93.1885 60.1213C86.3241 54.7681 73.2888 48.3662 50.8789 40.6861L49.9063 43.5241Z" fill="#FDC199"/>
</svg>
