<svg width="45" height="97" viewBox="0 0 45 97" fill="none" xmlns="http://www.w3.org/2000/svg">
<path d="M43.8285 93.4612C44.6356 93.2741 45.1381 92.4682 44.951 91.6612C44.7639 90.8542 43.958 90.3516 43.1509 90.5388L43.8285 93.4612ZM34.4161 1.53466C34.1594 0.747019 33.3127 0.316632 32.5251 0.573362L19.6897 4.75703C18.9021 5.01376 18.4717 5.8604 18.7284 6.64803C18.9852 7.43568 19.8318 7.86607 20.6194 7.60934L32.0287 3.89052L35.7475 15.2997C36.0042 16.0874 36.8508 16.5178 37.6385 16.261C38.4261 16.0043 38.8565 15.1577 38.5998 14.37L34.4161 1.53466ZM43.1509 90.5388C34.2966 92.5917 27.2087 93.4289 21.6196 93.2704C16.0257 93.1118 12.0321 91.9588 9.2666 90.128C3.89389 86.5712 2.52003 79.9448 4.18357 70.6899C5.83766 61.4876 10.4125 50.2754 16.0951 38.4056C21.7762 26.5391 28.4648 14.2111 34.3271 2.67925L31.6528 1.31978C25.8464 12.7418 19.0861 25.2106 13.3892 37.1102C7.69388 49.0066 2.96171 60.53 1.23089 70.1592C-0.49049 79.7358 0.672829 88.0367 7.61057 92.6295C11.0003 94.8736 15.6052 96.101 21.5346 96.2692C27.4688 96.4375 34.8288 95.5479 43.8285 93.4612L43.1509 90.5388Z" fill="#FDC199"/>
</svg>
