<svg width="60" height="86" viewBox="0 0 60 86" fill="none" xmlns="http://www.w3.org/2000/svg">
<path d="M2.30939 81.5318C1.49873 81.3612 0.70321 81.88 0.532543 82.6906C0.361874 83.5013 0.880686 84.2968 1.69134 84.4675L2.30939 81.5318ZM47.2468 0.699045C46.5282 0.286885 45.6115 0.535328 45.1993 1.25395L38.4829 12.9646C38.0707 13.6832 38.3192 14.5999 39.0378 15.012C39.7564 15.4242 40.6731 15.1758 41.0852 14.4571L47.0554 4.04768L57.4649 10.0179C58.1835 10.43 59.1002 10.1816 59.5123 9.46297C59.9245 8.74434 59.6761 7.82767 58.9574 7.41551L47.2468 0.699045ZM1.69134 84.4675C11.4401 86.5199 20.199 85.801 27.6149 82.6205C35.0353 79.4379 41.0075 73.8345 45.2452 66.2974C53.6976 51.2639 55.2548 28.5667 47.9483 1.60785L45.0527 2.39261C52.2459 28.9333 50.5528 50.7358 42.6302 64.8272C38.6802 71.8525 33.1837 76.9678 26.4324 79.8633C19.6764 82.7609 11.5604 83.4795 2.30939 81.5318L1.69134 84.4675Z" fill="hsl(24, 95%, 74%)"/>
</svg>
