<svg width="41" height="92" viewBox="0 0 41 92" fill="none" xmlns="http://www.w3.org/2000/svg">
<path d="M38.387 88.2978C39.16 88.5957 39.5452 89.4638 39.2473 90.2368C38.9495 91.0099 38.0814 91.3951 37.3083 91.0972L38.387 88.2978ZM39.6962 10.9205C40.2627 11.525 40.2318 12.4743 39.6273 13.0407L29.7759 22.2712C29.1714 22.8376 28.2222 22.8067 27.6557 22.2022C27.0893 21.5977 27.1202 20.6484 27.7247 20.082L36.4814 11.8771L28.2766 3.12039C27.7102 2.51587 27.741 1.56662 28.3456 1.00019C28.9501 0.433764 29.8993 0.464653 30.4658 1.06918L39.6962 10.9205ZM37.3083 91.0972C11.3503 81.095 -0.118426 60.7477 0.879323 42.8422C1.37725 33.9065 4.99022 25.6022 11.4429 19.6241C17.9061 13.6363 27.1208 10.0718 38.6504 10.4469L38.5529 13.4453C27.7205 13.0929 19.3013 16.4333 13.4818 21.8248C7.65187 27.226 4.33349 34.7752 3.87468 43.0091C2.95894 59.4429 13.4752 78.6988 38.387 88.2978L37.3083 91.0972Z" fill="#FDC199"/>
</svg>
