<svg width="81" height="87" viewBox="0 0 81 87" fill="none" xmlns="http://www.w3.org/2000/svg">
<path d="M1.87946 81.9687C1.05506 81.887 0.320541 82.4891 0.238848 83.3135C0.157152 84.1378 0.759226 84.8724 1.58361 84.9541L1.87946 81.9687ZM1.23414 15.5457C1.20039 16.3735 1.84405 17.0718 2.67179 17.1056L16.1606 17.6555C16.9883 17.6893 17.6867 17.0456 17.7204 16.2179C17.7542 15.3901 17.1105 14.6918 16.2828 14.658L4.29276 14.1692L4.78161 2.17914C4.81535 1.3514 4.1717 0.653026 3.34396 0.619277C2.51622 0.585531 1.81784 1.22919 1.7841 2.05693L1.23414 15.5457ZM1.58361 84.9541C24.8806 87.2627 43.5303 85.9447 56.8524 79.4019C70.3296 72.783 78.1456 60.9259 79.949 42.8103L76.9637 42.5131C75.245 59.7787 67.9226 70.6228 55.53 76.7091C42.9823 82.8716 25.0306 84.2629 1.87946 81.9687L1.58361 84.9541ZM79.949 42.8103C81.7935 24.2817 69.8102 10.0421 53.7273 4.05628C37.6388 -1.93159 17.2204 0.214487 1.71632 14.5038L3.74947 16.7098C18.3485 3.25455 37.5529 1.23746 52.6809 6.86787C67.8145 12.5004 78.6414 25.6605 76.9637 42.5131L79.949 42.8103Z" fill="#FDC199"/>
</svg>
