<svg width="36" height="64" viewBox="0 0 36 64" fill="none" xmlns="http://www.w3.org/2000/svg">
<path d="M14.6513 63.4587C15.4569 63.652 16.2666 63.1557 16.4599 62.3501L19.6099 49.2228C19.8032 48.4172 19.3069 47.6075 18.5013 47.4142C17.6958 47.2209 16.886 47.7172 16.6927 48.5228L13.8927 60.1916L2.22396 57.3916C1.4184 57.1983 0.608665 57.6946 0.415367 58.5002C0.222066 59.3057 0.718402 60.1154 1.52396 60.3088L14.6513 63.4587ZM35.1939 1.01249C20.3745 -0.906775 8.29568 3.85718 3.41155 14.9402C-1.40383 25.8672 1.13148 42.2428 13.7225 62.784L16.2802 61.2163C3.86012 40.9538 1.94477 25.7079 6.1568 16.15C10.3001 6.74812 20.7268 2.1639 34.8086 3.98765L35.1939 1.01249Z" fill="#FDC199"/>
</svg>
