<svg width="64" height="79" viewBox="0 0 64 79" fill="none" xmlns="http://www.w3.org/2000/svg">
<path d="M61.2579 4.98017C62.0754 5.11442 62.8469 4.56055 62.9812 3.74307C63.1154 2.92559 62.5615 2.15407 61.744 2.01983L61.2579 4.98017ZM48.2168 70.3636C48.9034 69.9001 49.0844 68.9678 48.6209 68.2811L41.0681 57.0916C40.6047 56.4049 39.6723 56.224 38.9857 56.6875C38.299 57.1509 38.1181 58.0833 38.5816 58.7699L45.2951 68.7162L35.3489 75.4298C34.6622 75.8932 34.4813 76.8256 34.9448 77.5122C35.4082 78.1989 36.3406 78.3798 37.0272 77.9163L48.2168 70.3636ZM61.744 2.01983C26.7786 -3.72209 5.04291 9.40046 1.40714 26.7728C-0.402192 35.418 2.41728 44.7603 9.9885 52.7194C17.5474 60.6655 29.834 67.2441 47.0919 70.5928L47.6633 67.6478C30.8366 64.3827 19.1795 58.0285 12.1621 50.6517C5.15706 43.2878 2.76769 34.9169 4.34352 27.3873C7.47807 12.4099 26.8886 -0.663844 61.2579 4.98017L61.744 2.01983Z" fill="#FDC199"/>
</svg>
