<svg width="249" height="250" viewBox="0 0 249 250" fill="none" xmlns="http://www.w3.org/2000/svg">
<path fill-rule="evenodd" clip-rule="evenodd" d="M147.798 140.224L108.903 179.118V202.455L85.567 241.349L101.125 249.128L155.576 194.676L147.798 140.224ZM108.903 101.33L54.4517 93.5512L0 148.003L7.77882 163.561L46.6729 140.224H70.0094L108.903 101.33Z" fill="#CBC3FD"/>
<path d="M38.8941 171.339C23.5698 193.665 0.0777882 221.202 0 233.57C0 242.905 6.14527 249.205 15.5576 249.128C28.0815 249.05 54.5295 225.636 77.7882 210.234L38.8941 171.339Z" fill="#CFC8FF"/>
<path d="M62.2306 163.561C46.9063 185.886 15.5576 213.501 15.5576 225.791C15.5576 233.881 16.3355 233.57 23.3365 233.57C35.8604 233.57 62.2306 202.299 85.567 186.897L62.2306 163.561Z" fill="#948CC6"/>
<path d="M233.365 0.127584C208.939 1.60556 166.7 4.56151 116.682 54.5793C79.8885 91.3731 47.6064 144.891 32.4377 180.363L68.8426 216.768C104.158 201.755 157.288 169.395 194.393 132.29C244.099 82.5831 246.9 40.2663 248.844 15.6074C249.7 4.6393 243.477 -0.572509 233.287 0.0497962L233.365 0.127584Z" fill="#6A629C"/>
<path d="M233.365 0.127584C208.939 1.60556 166.7 4.56151 116.682 54.5793C86.6561 84.6056 59.6635 125.756 42.4724 159.204L90.0787 206.811C123.294 189.697 164.211 162.627 194.47 132.368C244.177 82.6609 246.978 40.3441 248.922 15.6852C249.778 4.71709 243.555 -0.494721 233.365 0.127584Z" fill="#8B83BD"/>
<path d="M186.692 93.5512C203.876 93.5512 217.807 79.6204 217.807 62.4359C217.807 45.2514 203.876 31.3207 186.692 31.3207C169.507 31.3207 155.576 45.2514 155.576 62.4359C155.576 79.6204 169.507 93.5512 186.692 93.5512Z" fill="#4C447E"/>
<path d="M186.692 77.9936C195.284 77.9936 202.249 71.0282 202.249 62.4359C202.249 53.8437 195.284 46.8783 186.692 46.8783C178.099 46.8783 171.134 53.8437 171.134 62.4359C171.134 71.0282 178.099 77.9936 186.692 77.9936Z" fill="#F2F0FF"/>
</svg>
