<?xml version="1.0" encoding="UTF-8"?>
<svg id="a" data-name="Layer 1" xmlns="http://www.w3.org/2000/svg" width="512" height="512" viewBox="0 0 512 512">
  <path d="m346.1.11v-.11h-162.09c-14.48,0-24.68,14.22-20.04,27.94l68.05,201.03c2.32,6.86-2.78,13.97-10.02,13.97h-120.85c-9.07,0-17.13,5.78-20.04,14.37l-29.98,88.57L4.37,484.06c-4.64,13.72,5.56,27.94,20.04,27.94h70.02c9.07,0,17.13-5.78,20.04-14.37l48.93-144.56c1.45-4.3,5.48-7.19,10.02-7.19h90.6c4.53,0,8.56,2.89,10.02,7.19l48.93,144.56c2.91,8.59,10.97,14.37,20.04,14.37h70.02c14.48,0,24.68-14.22,20.04-27.94l-46.89-138.52c-1.91-5.64,1.23-11.69,6.9-13.49,17.96-5.72,34.63-14.35,49.44-25.33,41.79-30.98,68.89-80.67,68.89-136.67C511.41,77.72,437.82,2.59,346.1.11Zm2.1,233.24l-39.59-116.93c-2.32-6.86,2.78-13.97,10.02-13.97h22.77c38.79,0,70.25,31.44,70.25,70.25,0,31.99-21.39,58.99-50.64,67.47-5.38,1.56-11.01-1.51-12.81-6.81Z"/>
</svg>